<svg width="48" height="48" viewBox="0 0 48 48" fill="none" xmlns="http://www.w3.org/2000/svg">
<path d="M27 36H8V24H28.6C30.6 21.6 33.6 20 37 20C39.6 20 42 21 44 22.6V12C44 10.9391 43.5786 9.92172 42.8284 9.17157C42.0783 8.42143 41.0609 8 40 8H8C6.93913 8 5.92172 8.42143 5.17157 9.17157C4.42143 9.92172 4 10.9391 4 12V36C4 37.0609 4.42143 38.0783 5.17157 38.8284C5.92172 39.5786 6.93913 40 8 40H29.2C28.4 38.8 27.6 37.4 27 36ZM8 12H40V16H8V12ZM37 24C33.2 24 30 27.2 30 31C30 36.2 37 44 37 44C37 44 44 36.2 44 31C44 27.2 40.8 24 37 24ZM37 33.6C35.6 33.6 34.6 32.4 34.6 31.2C34.6 29.8 35.8 28.8 37 28.8C38.2 28.8 39.4 30 39.4 31.2C39.6 32.4 38.4 33.6 37 33.6Z" fill="#8ED06C"/>
</svg>
