<svg width="49" height="48" viewBox="0 0 49 48" fill="none" xmlns="http://www.w3.org/2000/svg">
<path d="M39 33C36.5 33 34.1 32.6 31.86 31.86C31.16 31.64 30.38 31.8 29.82 32.36L25.42 36.76C19.76 33.88 15.12 29.24 12.24 23.58L16.64 19.18C17.2 18.62 17.36 17.84 17.14 17.14C16.4 14.9 16 12.5 16 10C16 9.46957 15.7893 8.96086 15.4142 8.58579C15.0391 8.21071 14.5304 8 14 8H7C6.46957 8 5.96086 8.21071 5.58579 8.58579C5.21071 8.96086 5 9.46957 5 10C5 19.0174 8.58213 27.6654 14.9584 34.0416C21.3346 40.4179 29.9826 44 39 44C39.5304 44 40.0391 43.7893 40.4142 43.4142C40.7893 43.0391 41 42.5304 41 42V35C41 34.4696 40.7893 33.9609 40.4142 33.5858C40.0391 33.2107 39.5304 33 39 33ZM35 24L45 14L35 4V10H27V18H35V24Z" fill="#004324"/>
</svg>
