<svg width="48" height="48" viewBox="0 0 48 48" fill="none" xmlns="http://www.w3.org/2000/svg">
<path d="M35.3403 21C32.8003 21 30.5403 22.6 29.7003 25H26.3403V15.54L33.3203 19.72L35.3203 16.28L28.2203 12L35.3603 7.72L33.3603 4.28L26.3403 8.46V4H22.3403V8.46L15.3603 4.28L13.3603 7.72L20.4603 12L13.3203 16.28L15.3203 19.72L22.3403 15.54V25H19.0003C16.7203 18.64 7.32031 20.26 7.32031 27C7.32031 33.74 16.7203 35.36 19.0003 29H22.3403V40C21.2794 40 20.262 40.4214 19.5119 41.1716C18.7617 41.9217 18.3403 42.9391 18.3403 44H30.3403C30.3403 42.9391 29.9189 41.9217 29.1687 41.1716C28.4186 40.4214 27.4012 40 26.3403 40V29H29.7003C31.3203 33.6 37.4603 34.44 40.2603 30.46C43.0603 26.48 40.2003 21 35.3403 21ZM13.3403 29C11.5603 29 10.6603 26.84 11.9203 25.58C13.1803 24.32 15.3403 25.22 15.3403 27C15.3403 27.5304 15.1296 28.0391 14.7545 28.4142C14.3795 28.7893 13.8707 29 13.3403 29ZM35.3403 29C33.5603 29 32.6603 26.84 33.9203 25.58C35.1803 24.32 37.3403 25.22 37.3403 27C37.3403 27.5304 37.1296 28.0391 36.7545 28.4142C36.3795 28.7893 35.8707 29 35.3403 29Z" fill="black"/>
</svg>
