<svg width="48" height="48" viewBox="0 0 48 48" fill="none" xmlns="http://www.w3.org/2000/svg">
<path d="M10.1199 6C9.25994 6 8.43994 6.28 7.67994 6.84C6.91994 7.4 6.47994 8.12 6.27994 9L4.21994 17.82C3.71994 20 4.11994 21.84 5.37994 23.46C5.61994 23.7 5.85994 23.94 6.07994 24.14C7.25994 25.28 8.55994 26 10.4399 26C12.3199 26 13.8199 25.18 14.9399 24.1C16.1999 25.34 17.7199 26 19.5999 26C21.2799 26 22.8799 25.26 23.9999 24.14C25.3599 25.4 26.8999 26 28.5999 26C30.3399 26 31.8199 25.34 33.0799 24.1C34.2199 25.24 35.7199 26 37.6199 26C39.5199 26 40.8599 25.3 41.9999 24.12L42.2599 23.84C42.3599 23.74 42.4599 23.64 42.5599 23.54C43.8799 21.9 44.2799 20 43.7799 17.82L41.7199 9C41.4599 8.12 40.9999 7.4 40.2599 6.84C39.5399 6.28 38.7599 6 37.8799 6M37.7799 9.94L39.9399 18.76C40.1199 19.62 39.9399 20.4 39.3799 21.1C38.8799 21.72 38.2599 22 37.4999 22C36.8799 22 36.3399 21.8 35.8999 21.32C35.4599 20.86 35.2199 20.32 35.1599 19.68L33.9399 10M10.1199 10H14.0599L12.8399 19.68C12.5999 21.26 11.8199 22 10.4999 22C9.67994 22 9.05994 21.72 8.61994 21.1C8.05994 20.4 7.87994 19.62 8.05994 18.76M18.0999 10H21.9999V19.4C21.9999 20.1 21.7799 20.7 21.2799 21.24C20.7799 21.76 20.1599 22 19.3999 22C18.7199 22 18.1399 21.76 17.6799 21.18C17.2199 20.6 16.9999 20 16.9999 19.32V19M25.9999 10H29.8999L30.9999 19C31.1599 19.84 30.9999 20.54 30.4199 21.14C29.8999 21.74 29.2199 22 28.3999 22C27.7799 22 27.2199 21.76 26.7199 21.24C26.2199 20.7 25.9999 20.1 25.9999 19.4M25.9399 29.44C25.2199 29.12 24.5599 28.68 23.9999 28.14C22.8599 29.28 21.2999 30 19.5599 30C17.7399 30 16.1399 29.3 14.9399 28.1C13.7799 29.28 12.1999 30 10.4599 30C8.65994 30 7.31994 29.3 5.99994 28.06V38C5.99994 40.22 7.77994 42 9.99994 42H25.5999C24.5799 40.24 23.9999 38.18 23.9999 36C23.9999 33.58 24.7199 31.32 25.9399 29.44ZM33.9999 42L28.4999 36L30.8199 33.68L33.9999 36.86L41.1799 29.68L43.4999 32.5L33.9999 42Z" fill="#8ED06C"/>
</svg>
